REM DIRINDEX 1\2,1\3
REM DIRNAME folder01,folder02,folder03
TITLE ""
FILE "Track48.mp3" MP3
  TRACK 01 AUDIO
    TITLE "3:cjc140_173"
    INDEX 01 00:00:00
  TRACK 02 AUDIO
    TITLE "2:cjc140_174"
    INDEX 01 00:02:02
  TRACK 03 AUDIO
    TITLE "2:cjc140_175"
    INDEX 01 00:08:21
  TRACK 04 AUDIO
    TITLE "2:cjc140_176"
    INDEX 01 00:17:02
  TRACK 05 AUDIO
    TITLE "0:"
    INDEX 01 00:30:12
